Coordinates
version=1
nRows=11
nColumns=63
inDegrees=yes

Units are S.I. units (second, meters, Newtons, ...)
If the header above contains a line with 'inDegrees', this indicates whether rotational values are in degrees (yes) or radians (no).

endheader
time	pelvis_tilt	pelvis_list	pelvis_rotation	pelvis_tx	pelvis_ty	pelvis_tz	hip_flexion_r	hip_adduction_r	hip_rotation_r	knee_angle_r	knee_angle_r_beta	ankle_angle_r	subtalar_angle_r	mtp_angle_r	hip_flexion_l	hip_adduction_l	hip_rotation_l	knee_angle_l	knee_angle_l_beta	ankle_angle_l	subtalar_angle_l	mtp_angle_l	L5_S1_Flex_Ext	L5_S1_Lat_Bending	L5_S1_axial_rotation	L4_L5_Flex_Ext	L4_L5_Lat_Bending	L4_L5_axial_rotation	L3_L4_Flex_Ext	L3_L4_Lat_Bending	L3_L4_axial_rotation	L2_L3_Flex_Ext	L2_L3_Lat_Bending	L2_L3_axial_rotation	L1_L2_Flex_Ext	L1_L2_Lat_Bending	L1_L2_axial_rotation	L1_T12_Flex_Ext	L1_T12_Lat_Bending	L1_T12_axial_rotation	Abs_r3	Abs_r2	Abs_r1	Abs_t1	Abs_t2	neck_flexion	neck_bending	neck_rotation	arm_flex_r	arm_add_r	arm_rot_r	elbow_flex_r	pro_sup_r	wrist_flex_r	wrist_dev_r	arm_flex_l	arm_add_l	arm_rot_l	elbow_flex_l	pro_sup_l	wrist_flex_l	wrist_dev_l
      3.31707317	     -2.05442155	     -7.50312417	     96.71828063	      0.27955277	      0.69921728	      0.90563699	      3.59500916	     -1.17654381	    -12.81499252	      6.32429264	      0.11037973	     24.19731489	     15.94478674	      0.00000000	      4.02522774	      2.07819013	     -5.45053712	      4.78515963	      0.08351679	     23.13489889	      5.77206671	      0.00000000	      0.00813169	     -0.37420370	     -0.00750333	      0.01510136	     -0.49769092	     -0.00797229	      0.01335955	     -0.90983887	     -0.00797229	      0.00929371	     -0.90983887	     -0.00656541	      0.00755109	     -0.76307618	     -0.00609645	      0.00464645	     -0.57964153	     -0.00562750	      0.05808385	     -4.23306709	     -0.04173126	      0.00000000	      0.00000000	     23.38643971	      3.89157985	      1.40112044	      0.52422730	    -16.94616235	     38.31484986	     38.53214057	     84.94514747	     -6.32298089	    -12.57717151	     -6.76368653	    -18.51641330	     20.28656524	     42.35309357	     87.36362396	     -5.81144968	      3.50100678
      3.34146341	     -2.07738449	     -7.71827529	     96.91716475	      0.27890328	      0.69852933	      0.90721303	      3.89479719	     -1.25056705	    -12.90372004	      6.28386592	      0.10967415	     24.19370922	     15.72292861	      0.00000000	      4.36354860	      2.19148679	     -4.40922857	      4.76202961	      0.08311310	     23.06878667	      4.81175605	      0.00000000	     -0.00941199	     -0.37807194	      0.15461824	     -0.01747900	     -0.50283568	      0.16428188	     -0.01546295	     -0.91924412	      0.16428188	     -0.01075696	     -0.91924412	      0.13529096	     -0.00873997	     -0.77096431	      0.12562732	     -0.00537801	     -0.58563344	      0.11596368	     -0.06722888	     -4.27682543	      0.85994025	      0.00000000	      0.00000000	     21.93037000	      3.13857446	      0.60526716	      1.15593700	    -16.46140605	     37.86567753	     36.18132445	     84.37150795	     -7.86700256	    -13.05878741	     -4.08039215	    -18.10599877	     22.65549330	     39.62703132	     87.12577064	     -6.92816629	      1.56679160
      3.36585366	     -2.05132483	     -7.89513806	     97.14631841	      0.27819376	      0.69776073	      0.90884471	      4.16313998	     -1.26582634	    -13.01560534	      6.19848735	      0.10818401	     24.22331262	     15.58202174	      0.00000000	      4.69939970	      2.24004673	     -3.73720263	      4.80441927	      0.08385293	     23.01419547	      4.21419502	      0.00000000	     -0.02143500	     -0.37168443	      0.29119758	     -0.03980694	     -0.49434029	      0.30939743	     -0.03521556	     -0.90371353	      0.30939743	     -0.02449806	     -0.90371353	      0.25479789	     -0.01990454	     -0.75793889	      0.23659804	     -0.01224796	     -0.57573919	      0.21839819	     -0.15310806	     -4.20456863	      1.61955361	      0.00000000	      0.00000000	     19.96096704	      2.06661780	     -0.30347264	      1.62031858	    -15.93858044	     36.82112978	     33.87670100	     83.59906910	     -8.87386837	    -13.48763599	     -1.59790178	    -17.59374717	     24.87726068	     37.14028369	     87.39084234	     -7.57541719	      0.58369887
      3.39024390	     -2.06554908	     -7.95247014	     97.20893278	      0.27772143	      0.69707630	      0.91069199	      4.38200012	     -1.31888634	    -13.06646569	      6.22862717	      0.10871005	     24.21672733	     15.52457016	      0.00000000	      4.93649118	      2.27941152	     -3.56573044	      4.92043636	      0.08587782	     22.97854886	      4.15310554	      0.00000000	     -0.05458193	     -0.35979937	      0.34432035	     -0.10136410	     -0.47853316	      0.36584037	     -0.08967265	     -0.87481619	      0.36584037	     -0.06238168	     -0.87481619	      0.30128031	     -0.05068478	     -0.73370288	      0.27976028	     -0.03118811	     -0.55732923	      0.25824026	     -0.38987324	     -4.07012246	      1.91500649	      0.00000000	      0.00000000	     17.91667932	      1.40234057	     -0.17155704	      2.48184888	    -15.38712405	     36.19348433	     31.62315323	     83.16069908	     -9.35530371	    -12.82621884	     -0.09461404	    -16.90972022	     25.05347545	     35.77323483	     87.65363558	     -7.99252006	      1.06277219
      3.41463415	     -1.83895003	     -7.84596650	     97.12856894	      0.27649032	      0.69679207	      0.91251563	      4.44042825	     -1.15301172	    -13.15059008	      6.20876809	      0.10836345	     24.01302226	     15.67015720	      0.00000000	      4.99979471	      2.15531999	     -2.81575049	      4.99401892	      0.08716207	     22.81284665	      2.84151959	      0.00000000	     -0.09711471	     -0.29331521	      0.51765231	     -0.18035172	     -0.39010923	      0.55000558	     -0.15954975	     -0.71316660	      0.55000558	     -0.11099240	     -0.71316660	      0.45294577	     -0.09018072	     -0.59812837	      0.42059250	     -0.05549134	     -0.45434526	      0.38823923	     -0.69368063	     -3.31804031	      2.87902687	      0.00000000	      0.00000000	     15.49748390	     -0.25713856	     -0.62556272	      2.78189561	    -15.35898635	     35.51374647	     29.69390608	     80.53592325	     -9.08719651	    -13.64828087	      2.76804346	    -16.88611840	     31.06235791	     33.81276669	     88.09361214	     -9.65626640	      0.98018939
      3.43902439	     -1.64201053	     -7.77583744	     97.01136927	      0.27533866	      0.69661696	      0.91419311	      4.57701345	     -1.03139940	    -13.15962804	      6.29853602	      0.10993019	     23.81696899	     15.72180901	      0.00000000	      5.10990277	      2.02108619	     -2.75442351	      5.11472927	      0.08926887	     22.84942927	      2.62739821	      0.00000000	     -0.13647913	     -0.22791968	      0.53003749	     -0.25345539	     -0.30313318	      0.56316483	     -0.22422156	     -0.55416392	      0.56316483	     -0.15598200	     -0.55416392	      0.46378280	     -0.12673452	     -0.46477382	      0.43065546	     -0.07798417	     -0.35304759	      0.39752812	     -0.97485678	     -2.57827303	      2.94790949	      0.00000000	      0.00000000	     13.78296840	     -1.19348258	      0.03894667	      3.47938386	    -15.19089837	     35.25420692	     28.00192094	     80.02915402	     -9.16591578	    -12.87985930	      3.60557248	    -16.41715861	     31.55210346	     33.45887925	     88.46252761	     -9.66792835	      1.56449398
      3.46341463	     -1.24309006	     -7.59510180	     96.89206196	      0.27349125	      0.69684339	      0.91581681	      4.53800193	     -0.71448487	    -13.33489265	      6.23834621	      0.10887968	     23.52165998	     16.01647144	      0.00000000	      5.04801891	      1.84207879	     -0.11367548	      5.04622967	      0.08807332	     22.12218892	     -1.29294121	      0.00000000	     -0.17825745	     -0.12754157	      0.58054362	     -0.33104191	     -0.16963029	      0.61682760	     -0.29285917	     -0.31010457	      0.61682760	     -0.20373044	     -0.31010457	      0.50797567	     -0.16552987	     -0.26008277	      0.47169169	     -0.10185631	     -0.19756189	      0.43540772	     -1.27327515	     -1.44277573	      3.22880947	      0.00000000	      0.00000000	     12.55508005	     -2.24670687	      0.67276448	      4.46257943	    -16.16611058	     39.89599250	     26.73540660	     71.09295831	     -8.04004359	    -13.24416822	      5.18449618	    -16.35395036	     35.76703073	     32.94595113	     88.61192912	     -9.76684301	      2.73692891
      3.48780488	     -1.07603099	     -7.52982945	     96.73335889	      0.27264705	      0.69691510	      0.91706261	      4.62270875	     -0.60133369	    -13.30110590	      6.30724218	      0.11008214	     23.41112935	     16.04649417	      0.00000000	      5.15448667	      1.71269017	     -0.11930414	      5.20128347	      0.09077952	     21.98170489	     -1.33663136	      0.00000000	     -0.20988504	     -0.07861881	      0.58998323	     -0.38977750	     -0.10456301	      0.62685719	     -0.34482012	     -0.19115376	      0.62685719	     -0.23987761	     -0.19115376	      0.51623533	     -0.19489924	     -0.16031947	      0.47936138	     -0.11992831	     -0.12178053	      0.44248743	     -1.49918782	     -0.88935165	      3.28130975	      0.00000000	      0.00000000	     12.00948251	     -2.73593705	      0.97472237	      4.65878445	    -16.20195956	     39.71558513	     25.84246134	     70.68723043	     -7.84957541	    -12.54038438	      5.15024757	    -16.31155508	     36.02667435	     33.56954408	     88.76388356	     -9.51648268	      2.78468504
      3.51219512	     -0.97427180	     -7.58011088	     96.68861668	      0.27170948	      0.69680451	      0.91834029	      4.77978995	     -0.56881029	    -13.17658738	      6.32006798	      0.11030600	     23.38221944	     15.93152488	      0.00000000	      5.38794615	      1.76561566	      1.25826582	      5.36235845	      0.09359081	     21.54885256	     -3.43999700	      0.00000000	     -0.21857345	     -0.04705824	      0.52908093	     -0.40591275	     -0.06258746	      0.56214848	     -0.35909431	     -0.11441740	      0.56214848	     -0.24980759	     -0.11441740	      0.46294581	     -0.20296730	     -0.09596116	      0.42987825	     -0.12489287	     -0.07289321	      0.39681069	     -1.56124826	     -0.53233220	      2.94258939	      0.00000000	      0.00000000	     11.83865614	     -3.24975014	      1.21257240	      5.64848468	    -16.85761603	     45.65842821	     25.04351145	     59.33688227	     -5.42427535	    -12.23625789	      4.46621249	    -16.35970759	     35.62413739	     34.40913867	     88.83649941	     -9.30479445	      3.04485716
      3.53658537	     -1.00091311	     -7.57665743	     96.68975949	      0.27092820	      0.69689370	      0.91960221	      4.83650510	     -0.65505870	    -13.20122123	      6.31551215	      0.11022648	     23.40585586	     15.89723395	      0.00000000	      5.51112401	      1.86332594	      1.32052853	      5.41003715	      0.09442296	     21.42177503	     -3.37475782	      0.00000000	     -0.24681397	     -0.03552333	      0.54580427	     -0.45835822	     -0.04724603	      0.57991703	     -0.40549067	     -0.08637142	      0.57991703	     -0.28208368	     -0.08637142	      0.47757873	     -0.22919145	     -0.07243917	      0.44346597	     -0.14102950	     -0.05502564	      0.40935320	     -1.76296748	     -0.40184701	      3.03559959	      0.00000000	      0.00000000	     11.91073982	     -3.26465262	      1.17341254	      5.46851489	    -17.05478634	     45.67218207	     24.83020720	     59.31295859	     -5.40452667	    -12.13326985	      3.98867273	    -16.23148435	     35.75707178	     34.60756193	     88.83081468	     -9.26583925	      2.95448600
      3.56097561	     -1.11861298	     -7.99230542	     96.97528954	      0.27073166	      0.69614881	      0.92071109	      5.37970299	     -0.86313791	    -13.32679073	      6.50983866	      0.11361812	     23.68526122	     15.60694736	      0.00000000	      6.19339806	      2.07006869	      1.70002675	      5.64981640	      0.09860790	     21.58132060	     -3.35678640	      0.00000000	     -0.20871192	     -0.06278021	      0.49215980	     -0.38759891	     -0.08349769	      0.52291978	     -0.34289281	     -0.15264381	      0.52291978	     -0.23853685	     -0.15264381	      0.43063982	     -0.19380989	     -0.12802141	      0.39987984	     -0.11925799	     -0.09724655	      0.36911985	     -1.49080837	     -0.71018234	      2.73724515	      0.00000000	      0.00000000	     12.25929272	     -3.41119562	      0.43242650	      5.27448857	    -17.08209051	     45.81182253	     24.72903255	     58.93831624	     -4.44021294	    -11.42675181	      2.41105285	    -16.37781728	     34.15181132	     35.56971156	     88.58804168	     -9.51871585	      2.07672523
